<svg id="Layer_2" data-name="Layer 2" xmlns="http://www.w3.org/2000/svg" viewBox="0 0 785.69 266.96"><defs><style>.cls-1{fill:#a02222;}.cls-2{fill:#2c8924;}.cls-3{fill:none;stroke:#874525;stroke-miterlimit:10;stroke-width:9px;}</style></defs><title>fruition-temp</title><path class="cls-1" d="M92.63,330.45a56.55,56.55,0,0,1,6.53-2.7,15.26,15.26,0,0,1,5.64-.48,9.13,9.13,0,0,1,6.14,3.24,36,36,0,0,1,5.51,8.95,35.45,35.45,0,0,1,3.28,10,8.52,8.52,0,0,1-1.61,6.73,17.5,17.5,0,0,1-4.14,4,63.6,63.6,0,0,1-6.46,3.34L50.74,389.86l8.71,18.74,36.56-17a60.49,60.49,0,0,1,6.72-2.78,16.4,16.4,0,0,1,5.73-.53q6.12.56,11.64,12.42,6,13,.11,18.68-2.53,2.31-9,5.33L74.8,441.64l16.31,35.07a60.32,60.32,0,0,1,2.74,6.62,16.63,16.63,0,0,1,.48,5.65q-.27,6.22-12.15,11.74-13,6-18.49,0-2.49-2.44-5.52-8.95l-48-103.18q-4.4-9.47-2.47-14.53t11.77-9.65Z" transform="translate(-7.16 -266.52)"/><path class="cls-1" d="M208.79,338.88a13.89,13.89,0,0,1,7.38,2.2q3.29,2.12,5.14,8.4t.33,14.84q-1.51,8.56-8.59,10.65a16,16,0,0,1-7.23.43,20.57,20.57,0,0,0-9,1A16.11,16.11,0,0,0,188,383a11.7,11.7,0,0,0-1.94,10.39l12.17,41.21a60,60,0,0,1,1.71,6.86,16.28,16.28,0,0,1-.33,5.75q-1.44,6-13.8,9.62-9.42,2.79-14.53.67-3.94-1.81-6-7.39-.59-2-1.68-5.7l-20.36-68.88a57.44,57.44,0,0,1-1.7-6.86,16.55,16.55,0,0,1,.19-5.5q1.17-6.1,13.74-9.82,11.78-3.48,16,.17a11.67,11.67,0,0,1,4.07,5.83,34.82,34.82,0,0,1,1.86-4.17q1.29-2.52,6.39-7.65t9.71-6.5a55.69,55.69,0,0,1,7.89-1.8A49.53,49.53,0,0,1,208.79,338.88Z" transform="translate(-7.16 -266.52)"/><path class="cls-1" d="M300.54,430.18q-20.51,2.61-36-11.21t-18.31-36.15l-4.51-35.53a60.63,60.63,0,0,1-.6-7.14,19.32,19.32,0,0,1,1.06-5.5q2.14-5.85,15.14-7.49,14.2-1.8,17.62,5.6,1.63,3.09,2.54,10.2L282,378.49q1.05,8.33,6.42,12.38t13.38,3.05q8-1,12.37-6.52T317.54,374L313,338a59.31,59.31,0,0,1-.58-7,16.13,16.13,0,0,1,1.25-5.62q2-5.61,15-7.27,12.78-1.62,16.33,3.5a19.06,19.06,0,0,1,2.4,5.16,60.55,60.55,0,0,1,1.2,7l9.12,71.86a57.94,57.94,0,0,1,.56,6.85,14.55,14.55,0,0,1-1.28,5.42q-2.37,5.65-15,7.26-12.37,1.58-15.84-2.94a16.22,16.22,0,0,1-3.09-8.07,20.77,20.77,0,0,1-3.14,4.53,50.38,50.38,0,0,1-4.91,5.16A27.33,27.33,0,0,1,300.54,430.18Z" transform="translate(-7.16 -266.52)"/><path class="cls-1" d="M373.3,334.58a59.48,59.48,0,0,1,.42-7.06,18.89,18.89,0,0,1,1.82-5.39q3-5.28,16-5.06,9.82.15,13.86,3.7c2.28,2,3.47,4.9,3.54,8.86q.17,2.06.11,5.94l-1.17,71.61a57.39,57.39,0,0,1-.42,7.06,16.54,16.54,0,0,1-2,5.39q-2.75,5.28-15.84,5.06-12.88-.21-15.67-5.78a19.08,19.08,0,0,1-1.65-5.35,59.71,59.71,0,0,1-.19-7.16Zm34.27-37.42a8.65,8.65,0,0,1-5.49,4.11,44.22,44.22,0,0,1-20.67-.33,8.59,8.59,0,0,1-5.35-4.39,17.54,17.54,0,0,1-1.75-5.45,59.07,59.07,0,0,1-.2-7.06,61.24,61.24,0,0,1,.43-7.06,16.69,16.69,0,0,1,1.82-5.19q3-5.48,16.05-5.26,12.88.21,15.46,5.77a16.48,16.48,0,0,1,1.86,5.46,81.9,81.9,0,0,1-.23,14.12A16.55,16.55,0,0,1,407.57,297.16Z" transform="translate(-7.16 -266.52)"/><path class="cls-1" d="M490.3,359.87l-13.13-2.24-3,28.08q-.58,5.49.88,8.12c1,1.75,3.06,2.8,6.24,3.14a67.16,67.16,0,0,1,7.3,1.1,14.49,14.49,0,0,1,5.18,2.51q4.39,3.15,3.21,14.14-1.38,12.81-7.39,15a18.73,18.73,0,0,1-5.57,1.15,56.48,56.48,0,0,1-6.85-.43q-21.17-2.28-31.12-13t-7.5-33.54l3.24-30.11a53.87,53.87,0,0,1-8.4-.29,9.4,9.4,0,0,1-7.06-4.26q-2.58-3.78-1.68-12.12t2.33-12a10.85,10.85,0,0,1,3.42-5.08,12.57,12.57,0,0,1,8.43-1.77l6.62,1.54,2.26-21a58.29,58.29,0,0,1,1.05-6.88,13,13,0,0,1,2.46-4.68q3.19-4.8,16.22-3.4,13.83,1.5,15.67,9.31c.44,2.24.41,5.74-.1,10.48l-2.15,19.94q9,.17,13.62.65a58.89,58.89,0,0,1,6.88,1.05,16.33,16.33,0,0,1,5.18,2.51q5,3.21,3.61,16.24-1.38,12.81-7.19,15.07a18.73,18.73,0,0,1-5.57,1.15A57.63,57.63,0,0,1,490.3,359.87Z" transform="translate(-7.16 -266.52)"/><path class="cls-1" d="M526.86,347.73a59.43,59.43,0,0,1,1.79-6.83A18.85,18.85,0,0,1,531.5,336q3.93-4.59,16.73-1.81,9.6,2.08,12.86,6.35,2.79,3.54,1.73,9.38-.23,2-1.05,5.84l-15.2,70a60.56,60.56,0,0,1-1.8,6.83,16.38,16.38,0,0,1-3,4.89q-3.72,4.64-16.53,1.86-12.6-2.74-14.22-8.75a19,19,0,0,1-.57-5.57,56.65,56.65,0,0,1,1.22-7.06Zm40.95-30a8.67,8.67,0,0,1-6.19,3,43.95,43.95,0,0,1-20.2-4.39A8.59,8.59,0,0,1,537,311a17.49,17.49,0,0,1-.65-5.69,58.35,58.35,0,0,1,1.2-7,57.29,57.29,0,0,1,1.8-6.84,16.79,16.79,0,0,1,2.8-4.73q4-4.78,16.78-2,12.59,2.73,14,8.7a16.53,16.53,0,0,1,.75,5.71,58.11,58.11,0,0,1-1.2,7,59.43,59.43,0,0,1-1.79,6.83A16.6,16.6,0,0,1,567.81,317.78Z" transform="translate(-7.16 -266.52)"/><path class="cls-1" d="M599.85,360.1q21.55-9.24,42.37-1.79t31.46,28.1q10.65,20.65,2.38,43.77a53.21,53.21,0,0,1-18.45,25.46q-12.74,9.47-26.69,11.1a58,58,0,0,1-26.67-2.91,55.64,55.64,0,0,1-22.42-15.09A58,58,0,0,1,568.31,423a51.66,51.66,0,0,1,1.7-30.58Q578.29,369.35,599.85,360.1Zm5.5,60.55q4.49,6.93,10.84,9.2t14.44-.27q8.08-2.54,11.46-12t-.94-16.21a22,22,0,0,0-11.26-9.24,21.42,21.42,0,0,0-14.63.2q-7.69,2.68-11,12T605.35,420.65Z" transform="translate(-7.16 -266.52)"/><path class="cls-1" d="M770.24,421.14q17.7,10.28,21.6,30.65t-7.4,39.84l-18.09,31.14a58.9,58.9,0,0,1-3.82,6,16.73,16.73,0,0,1-4.12,3.64q-5.25,3.33-16.58-3.24-12.57-7.3-10.71-15,.69-3.61,4.18-9.64l18.1-31.14q4.22-7.26,2.42-13.74T747,449.07q-7-4.06-13.8-2.33t-10.81,8.63l-18.19,31.32a58.9,58.9,0,0,1-3.82,5.95,14.51,14.51,0,0,1-4.3,3.53q-5.07,3.45-16.4-3.13-11.15-6.48-10.85-12.7a18.91,18.91,0,0,1,1.22-5.56,59,59,0,0,1,3.28-6.26l36.39-62.64a58.45,58.45,0,0,1,3.71-5.77,14.51,14.51,0,0,1,4.3-3.54q5.06-3,16.2,3.49,10.78,6.27,10.91,11.78a16.32,16.32,0,0,1-2.45,8.29,20.31,20.31,0,0,1,5.24-1.69,35.15,35.15,0,0,1,6.94-.94A26.74,26.74,0,0,1,770.24,421.14Z" transform="translate(-7.16 -266.52)"/><path class="cls-2" d="M650.42,366.9s-1.19-31.14,36.52-27.78C686.94,339.12,693.59,359.29,650.42,366.9Z" transform="translate(-7.16 -266.52)"/><path class="cls-3" d="M647.93,364.16s4.54-21.76-13.35-34.76" transform="translate(-7.16 -266.52)"/></svg>